<svg xmlns="http://www.w3.org/2000/svg" width="824" height="727" fill="none" viewBox="0 0 824 727">
  <path fill="#FFD9D9" d="M757.977 185.893c45.622 80.712 71.012 172.204 65.203 263.009-6.019 91.255-42.991 182.483-112.26 224.744-68.799 42.465-168.76 35.919-257.28 41.051-88.309 4.678-164.763 20.122-244.109 6.811C130.86 707.951 49.506 665.185 17.729 599.42c-31.986-65.31-14.647-154.282 4.803-235.722 19.24-80.985 40.55-155.556 87.36-209.996 46.814-54.44 119.341-89.21 201.738-117.391 82.398-28.182 174.877-50.23 254.638-25.75 79.295 24.272 145.616 94.415 191.709 175.332Z"/>
</svg>
