<svg xmlns="http://www.w3.org/2000/svg" width="824" height="774" fill="none" viewBox="0 0 824 774">
  <g clip-path="url(#a)">
    <path fill="#FFD9D9" d="M897.977 233.096c45.622 80.712 71.012 172.204 65.203 263.008-6.019 91.255-42.991 182.483-112.26 224.744-68.799 42.466-168.76 35.919-257.28 41.052-88.309 4.678-164.763 20.121-244.109 6.81-78.671-13.556-160.025-56.322-191.802-122.087-31.986-65.31-14.647-154.283 4.803-235.723 19.241-80.985 40.549-155.555 87.36-209.996 46.814-54.44 119.341-89.209 201.738-117.39 82.398-28.182 174.877-50.231 254.638-25.75 79.295 24.272 145.616 94.415 191.709 175.332Z"/>
    <mask id="b" width="312" height="185" x="42" y="155" maskUnits="userSpaceOnUse" style="mask-type:luminance">
      <path fill="#fff" d="M42.734 155.865h310.718v183.846H42.734V155.865Z"/>
    </mask>
    <g mask="url(#b)">
      <path fill="#fff" d="M318.559 234.054a36.587 36.587 0 0 0 2.488-13.242c0-20.581-17.083-37.279-38.192-37.279-4.304 0-8.413.705-12.28 1.982-9.462-17.612-28.409-29.641-50.216-29.641-26.503 0-48.748 17.744-54.953 41.711-6.36-5.392-14.643-8.678-23.732-8.678-19.971 0-36.16 15.802-36.16 35.296 0 .295 0 .573.018.873a43.578 43.578 0 0 0-19.99-4.842c-23.643.023-42.808 18.726-42.808 41.798 0 23.076 19.165 41.801 42.827 41.801 4.085 0 8.04-.577 11.777-1.623 4.961 19.408 22.925 33.801 44.36 33.801 14.027 0 26.549-6.16 34.94-15.866 5.856 11.584 18.071 19.535 32.186 19.535 14.116 0 25.609-7.506 31.661-18.53.195-.064.391-.109.591-.173 5.614 5.61 13.459 9.106 22.134 9.106 15.294 0 27.989-10.834 30.504-25.059 5.945 3.542 12.933 5.57 20.429 5.57 21.718 0 39.356-17.189 39.356-38.411 0-19.726-15.252-35.996-34.898-38.151l-.042.022Z"/>
    </g>
    <g clip-path="url(#c)">
      <mask id="d" width="61" height="88" x="228" y="219" maskUnits="userSpaceOnUse" style="mask-type:luminance">
        <path fill="#fff" d="M228.667 219.607h60v86.667h-60v-86.667Z"/>
      </mask>
      <g mask="url(#d)">
        <mask id="e" width="86" height="86" x="216" y="220" maskUnits="userSpaceOnUse" style="mask-type:luminance">
          <path fill="#fff" d="m216.391 234.206 71.546-13.859 13.86 71.541-71.547 13.86-13.859-71.542Z"/>
        </mask>
        <g mask="url(#e)">
          <mask id="f" width="86" height="86" x="216" y="220" maskUnits="userSpaceOnUse" style="mask-type:luminance">
            <path fill="#fff" d="m216.391 234.206 71.546-13.859 13.86 71.541-71.547 13.86-13.859-71.542Z"/>
          </mask>
          <g mask="url(#f)">
            <path fill="#C5283E" d="M288.214 221.67c-38.73 7.505-64.131 45.114-56.631 83.843l-1.312.25a72.849 72.849 0 0 1-1.344-14.223 72.835 72.835 0 0 1 1.469-14.214 71.87 71.87 0 0 1 1.765-6.932 75.14 75.14 0 0 1 2.443-6.724 73.18 73.18 0 0 1 11.089-18.297 73.458 73.458 0 0 1 4.833-5.271 73.411 73.411 0 0 1 5.323-4.781 74.881 74.881 0 0 1 5.771-4.229 73.03 73.03 0 0 1 6.156-3.641 71.78 71.78 0 0 1 6.484-3.026 71.57 71.57 0 0 1 6.75-2.37 72.378 72.378 0 0 1 6.948-1.698"/>
          </g>
        </g>
      </g>
      <mask id="g" width="74" height="76" x="230" y="231" maskUnits="userSpaceOnUse" style="mask-type:luminance">
        <path fill="#fff" d="M230 231.607h73.333v74.667H230v-74.667Z"/>
      </mask>
      <g mask="url(#g)">
        <mask id="h" width="75" height="75" x="229" y="231" maskUnits="userSpaceOnUse" style="mask-type:luminance">
          <path fill="#fff" d="m229.583 232.503 72.875-.552.547 72.87-72.87.552-.552-72.87Z"/>
        </mask>
        <g mask="url(#h)">
          <mask id="i" width="75" height="75" x="229" y="231" maskUnits="userSpaceOnUse" style="mask-type:luminance">
            <path fill="#fff" d="m229.583 232.503 72.875-.552.547 72.87-72.87.552-.552-72.87Z"/>
          </mask>
          <g mask="url(#i)">
            <path fill="#C5283E" d="M302.484 233.305c-39.442.297-71.297 32.63-70.994 72.078l-1.339.011a71.113 71.113 0 0 1 .292-7.151 72.203 72.203 0 0 1 2.672-14.037 72.27 72.27 0 0 1 5.364-13.245 72.43 72.43 0 0 1 7.844-11.942 71.98 71.98 0 0 1 4.766-5.339 73.556 73.556 0 0 1 5.26-4.844 73.188 73.188 0 0 1 11.828-8.026 72.795 72.795 0 0 1 34.297-8.843"/>
          </g>
        </g>
      </g>
      <mask id="j" width="46" height="99" x="224" y="208" maskUnits="userSpaceOnUse" style="mask-type:luminance">
        <path fill="#fff" d="M224.667 208.941H270v97.333h-45.333v-97.333Z"/>
      </mask>
      <g mask="url(#j)">
        <mask id="k" width="96" height="96" x="202" y="210" maskUnits="userSpaceOnUse" style="mask-type:luminance">
          <path fill="#fff" d="m202.01 238.873 66.912-28.865 28.864 66.912-66.911 28.864-28.865-66.911Z"/>
        </mask>
        <g mask="url(#k)">
          <mask id="l" width="96" height="96" x="202" y="210" maskUnits="userSpaceOnUse" style="mask-type:luminance">
            <path fill="#fff" d="m202.01 238.873 66.912-28.865 28.864 66.912-66.911 28.864-28.865-66.911Z"/>
          </mask>
          <g mask="url(#l)">
            <path fill="#C5283E" d="M269.474 211.243c-36.219 15.625-52.974 57.807-37.349 94.026l-1.229.531a71.973 71.973 0 0 1-2.511-6.698 74.168 74.168 0 0 1-1.849-6.911 73.7 73.7 0 0 1-1.156-7.063 72.532 72.532 0 0 1 .735-21.38 71.207 71.207 0 0 1 1.635-6.964 72.546 72.546 0 0 1 2.307-6.771 74.899 74.899 0 0 1 2.964-6.51 74.51 74.51 0 0 1 3.588-6.187 73.64 73.64 0 0 1 4.183-5.808 70.939 70.939 0 0 1 4.729-5.364 72.229 72.229 0 0 1 10.916-9.224 73.142 73.142 0 0 1 12.506-6.907"/>
          </g>
        </g>
      </g>
      <mask id="m" width="84" height="100" x="456" y="588" maskUnits="userSpaceOnUse" style="mask-type:luminance">
        <path fill="#fff" d="M456.667 588.941h82.666v98.666h-82.666v-98.666Z"/>
      </mask>
      <g mask="url(#m)">
        <mask id="n" width="96" height="111" x="450" y="582" maskUnits="userSpaceOnUse" style="mask-type:luminance">
          <path fill="#fff" d="m450.516 602.06 25.599-19.458 69.015 90.807-25.604 19.459-69.01-90.808Z"/>
        </mask>
        <g mask="url(#n)">
          <mask id="o" width="83" height="98" x="456" y="589" maskUnits="userSpaceOnUse" style="mask-type:luminance">
            <path fill="#fff" d="M463.318 592.331a16.07 16.07 0 0 1 22.526 3.073l49.521 65.162a16.052 16.052 0 0 1 3.13 11.901 16.053 16.053 0 0 1-6.203 10.625 16.049 16.049 0 0 1-11.901 3.13 16.053 16.053 0 0 1-10.625-6.203l-49.521-65.157a16.05 16.05 0 0 1-3.13-11.901 16.052 16.052 0 0 1 6.203-10.63Z"/>
          </mask>
          <g mask="url(#o)">
            <path fill="#C5283E" d="m450.516 602.06 25.599-19.458 69.015 90.807-25.604 19.459-69.01-90.808Z"/>
          </g>
        </g>
      </g>
      <mask id="p" width="76" height="79" x="214" y="272" maskUnits="userSpaceOnUse" style="mask-type:luminance">
        <path fill="#fff" d="M214 272.941h76v77.333h-76v-77.333Z"/>
      </mask>
      <g mask="url(#p)">
        <mask id="q" width="94" height="93" x="205" y="265" maskUnits="userSpaceOnUse" style="mask-type:luminance">
          <path fill="#fff" d="m205.349 285.67 72.255-20.5 20.505 72.255-72.26 20.505-20.5-72.26Z"/>
        </mask>
        <g mask="url(#q)">
          <mask id="r" width="76" height="77" x="214" y="273" maskUnits="userSpaceOnUse" style="mask-type:luminance">
            <path fill="#fff" d="M241.479 275.42c-19.953 5.661-31.542 26.427-25.88 46.38 5.661 19.953 26.427 31.536 46.38 25.875 19.953-5.661 31.537-26.427 25.875-46.375-5.661-19.953-26.422-31.542-46.375-25.88Z"/>
          </mask>
          <g mask="url(#r)">
            <path fill="#C5283E" d="m205.349 285.67 72.255-20.5 20.505 72.255-72.26 20.505-20.5-72.26Z"/>
          </g>
        </g>
      </g>
      <mask id="s" width="218" height="291" x="302" y="158" maskUnits="userSpaceOnUse" style="mask-type:luminance">
        <path fill="#fff" d="M302 158.274h217.333v290.667H302V158.274Z"/>
      </mask>
      <g mask="url(#s)">
        <mask id="t" width="266" height="341" x="303" y="158" maskUnits="userSpaceOnUse" style="mask-type:luminance">
          <path fill="#fff" d="M568.427 221.784 441.172 498.389l-137.849-63.422 127.255-276.599 137.849 63.416Z"/>
        </mask>
        <g mask="url(#t)">
          <mask id="u" width="266" height="341" x="303" y="158" maskUnits="userSpaceOnUse" style="mask-type:luminance">
            <path fill="#fff" d="M568.427 221.784 441.172 498.389l-137.849-63.422 127.255-276.599 137.849 63.416Z"/>
          </mask>
          <g mask="url(#u)">
            <path fill="#323030" d="M504.802 360.144c-17.568 38.192-48.87 65.5-85.385 79.005-36.516 13.5-78.188 13.068-116.24-4.443L430.24 158.519c38.052 17.51 65.494 48.87 79 85.385 13.505 36.516 13.067 78.188-4.438 116.24Z"/>
          </g>
        </g>
      </g>
      <mask id="v" width="34" height="21" x="254" y="263" maskUnits="userSpaceOnUse" style="mask-type:luminance">
        <path fill="#fff" d="M254 263.607h33.333v20H254v-20Z"/>
      </mask>
      <g mask="url(#v)">
        <mask id="w" width="38" height="25" x="253" y="259" maskUnits="userSpaceOnUse" style="mask-type:luminance">
          <path fill="#fff" d="m258.078 259.191 32.479 15.39-4.276 9.021-32.474-15.391 4.271-9.02Z"/>
        </mask>
        <g mask="url(#w)">
          <mask id="x" width="38" height="25" x="253" y="259" maskUnits="userSpaceOnUse" style="mask-type:luminance">
            <path fill="#fff" d="m258.078 259.191 32.479 15.39-4.276 9.021-32.474-15.391 4.271-9.02Z"/>
          </mask>
          <g mask="url(#x)">
            <path fill="#1A1A1A" d="M254.078 267.633c.719-.479 1.469-.89 2.255-1.234.391-.182.792-.339 1.198-.49l.151-.057.157-.052.307-.104.151-.052.469-.141a20.508 20.508 0 0 1 5.177-.818c3.536-.114 7.119.662 10.343 2.193 3.224 1.531 6.094 3.813 8.24 6.615a20.414 20.414 0 0 1 2.651 4.526l.188.453.171.453c.021.047.042.099.058.151l.052.151.104.307c.031.104.068.203.099.308.031.109.062.208.094.312.026.104.057.203.083.313.229.828.391 1.666.474 2.52l-.208.079a25.65 25.65 0 0 0-2.151-4.433 25.03 25.03 0 0 0-4.693-5.661 25.648 25.648 0 0 0-1.901-1.557 25.415 25.415 0 0 0-8.833-4.188 27.012 27.012 0 0 0-3.631-.641 25.011 25.011 0 0 0-6.135.11 25.531 25.531 0 0 0-4.792 1.146l-.078-.209Z"/>
          </g>
        </g>
      </g>
      <mask id="y" width="83" height="100" x="390" y="583" maskUnits="userSpaceOnUse" style="mask-type:luminance">
        <path fill="#fff" d="M390 583.607h82.667v98.667H390v-98.667Z"/>
      </mask>
      <g mask="url(#y)">
        <mask id="z" width="95" height="112" x="384" y="577" maskUnits="userSpaceOnUse" style="mask-type:luminance">
          <path fill="#fff" d="m384.135 597.321 25.605-19.459 69.01 90.808-25.604 19.458-69.011-90.807Z"/>
        </mask>
        <g mask="url(#z)">
          <mask id="A" width="83" height="98" x="390" y="584" maskUnits="userSpaceOnUse" style="mask-type:luminance">
            <path fill="#fff" d="M396.938 587.592a16.108 16.108 0 0 1 11.901-3.131 16.08 16.08 0 0 1 10.625 6.204l49.526 65.161a16.079 16.079 0 0 1 3.125 11.901 16.069 16.069 0 0 1-18.099 13.76 16.074 16.074 0 0 1-10.631-6.203l-49.52-65.161a16.056 16.056 0 0 1-3.131-11.901 16.1 16.1 0 0 1 6.204-10.63Z"/>
          </mask>
          <g mask="url(#A)">
            <path fill="#C5283E" d="m384.135 597.321 25.605-19.459 69.01 90.808-25.604 19.458-69.011-90.807Z"/>
          </g>
        </g>
      </g>
      <mask id="B" width="43" height="65" x="451" y="664" maskUnits="userSpaceOnUse" style="mask-type:luminance">
        <path fill="#fff" d="M451.333 664.94H494v64h-42.667v-64Z"/>
      </mask>
      <g mask="url(#B)">
        <mask id="C" width="48" height="70" x="449" y="662" maskUnits="userSpaceOnUse" style="mask-type:luminance">
          <path fill="#fff" d="m467.568 731.852-18.313-8.563 28.636-61.224 18.312 8.563-28.635 61.224Z"/>
        </mask>
        <g mask="url(#C)">
          <mask id="D" width="41" height="64" x="452" y="665" maskUnits="userSpaceOnUse" style="mask-type:luminance">
            <path fill="#fff" d="M458.411 727.571a10.128 10.128 0 0 1-5.218-5.709 10.117 10.117 0 0 1 .349-7.729l20.057-42.896a10.126 10.126 0 0 1 5.708-5.218 10.117 10.117 0 0 1 7.729.349 10.093 10.093 0 0 1 5.219 5.708 10.095 10.095 0 0 1-.344 7.729l-20.062 42.891a10.097 10.097 0 0 1-5.708 5.218 10.1 10.1 0 0 1-7.73-.343Z"/>
          </mask>
          <g mask="url(#D)">
            <path fill="#1A1A1A" d="m467.568 731.852-18.313-8.563 28.636-61.224 18.312 8.563-28.635 61.224Z"/>
          </g>
        </g>
      </g>
      <mask id="E" width="43" height="65" x="518" y="669" maskUnits="userSpaceOnUse" style="mask-type:luminance">
        <path fill="#fff" d="M518 669.274h42.667v64H518v-64Z"/>
      </mask>
      <g mask="url(#E)">
        <mask id="F" width="48" height="71" x="515" y="666" maskUnits="userSpaceOnUse" style="mask-type:luminance">
          <path fill="#fff" d="m534.234 736.185-18.312-8.562 28.635-61.224 18.313 8.562-28.636 61.224Z"/>
        </mask>
        <g mask="url(#F)">
          <mask id="G" width="41" height="64" x="519" y="669" maskUnits="userSpaceOnUse" style="mask-type:luminance">
            <path fill="#fff" d="M525.078 731.904a10.131 10.131 0 0 1-5.219-5.708 10.126 10.126 0 0 1 .349-7.729l20.058-42.896a10.128 10.128 0 0 1 5.708-5.219 10.126 10.126 0 0 1 7.729.349 10.096 10.096 0 0 1 5.219 5.708 10.095 10.095 0 0 1-.344 7.729l-20.062 42.891a10.1 10.1 0 0 1-5.709 5.219 10.094 10.094 0 0 1-7.729-.344Z"/>
          </mask>
          <g mask="url(#G)">
            <path fill="#1A1A1A" d="m534.234 736.185-18.312-8.562 28.635-61.224 18.313 8.562-28.636 61.224Z"/>
          </g>
        </g>
      </g>
      <mask id="H" width="369" height="207" x="263" y="410" maskUnits="userSpaceOnUse" style="mask-type:luminance">
        <path fill="#fff" d="M263.333 410.274h368v206.667h-368V410.274Z"/>
      </mask>
      <g mask="url(#H)">
        <mask id="I" width="389" height="227" x="242" y="410" maskUnits="userSpaceOnUse" style="mask-type:luminance">
          <path fill="#fff" d="m608.776 636.748-365.781-43.495 21.687-182.396 365.782 43.495-21.688 182.396Z"/>
        </mask>
        <g mask="url(#I)">
          <mask id="J" width="389" height="227" x="242" y="410" maskUnits="userSpaceOnUse" style="mask-type:luminance">
            <path fill="#fff" d="m608.776 636.748-365.781-43.495 21.687-182.396 365.782 43.495-21.688 182.396Z"/>
          </mask>
          <g mask="url(#J)">
            <path fill="#C5283E" d="M425.984 615.045c-50.453-6-93.505-31.839-122.625-68.818-29.114-36.974-44.114-85.062-38.135-135.339 59.161 7.037 305.578 36.339 364.917 43.396-5.98 50.276-31.839 93.506-68.813 122.62-36.974 29.12-85.062 44.12-135.344 38.141Z"/>
          </g>
        </g>
      </g>
      <mask id="K" width="95" height="179" x="230" y="292" maskUnits="userSpaceOnUse" style="mask-type:luminance">
        <path fill="#fff" d="M230 292.941h94.667v177.333H230V292.941Z"/>
      </mask>
      <g mask="url(#K)">
        <mask id="L" width="109" height="192" x="223" y="285" maskUnits="userSpaceOnUse" style="mask-type:luminance">
          <path fill="#fff" d="m223.932 302.519 58.297-16.542 49.5 174.438-58.297 16.541-49.5-174.437Z"/>
        </mask>
        <g mask="url(#L)">
          <mask id="M" width="94" height="177" x="231" y="293" maskUnits="userSpaceOnUse" style="mask-type:luminance">
            <path fill="#fff" d="M253.083 294.248a30.291 30.291 0 0 1 23.032 2.693 30.276 30.276 0 0 1 14.385 18.187l32.938 116.078a30.287 30.287 0 0 1-2.688 23.037 30.31 30.31 0 0 1-18.188 14.385 30.304 30.304 0 0 1-23.036-2.693 30.273 30.273 0 0 1-14.385-18.187L232.203 331.67a30.307 30.307 0 0 1 20.88-37.422Z"/>
          </mask>
          <g mask="url(#M)">
            <path fill="#C5283E" d="m223.932 302.519 58.297-16.542 49.5 174.438-58.297 16.541-49.5-174.437Z"/>
          </g>
        </g>
      </g>
      <mask id="N" width="57" height="28" x="172" y="308" maskUnits="userSpaceOnUse" style="mask-type:luminance">
        <path fill="#fff" d="M172.667 308.941h56v26.666h-56v-26.666Z"/>
      </mask>
      <g mask="url(#N)">
        <mask id="O" width="58" height="37" x="170" y="309" maskUnits="userSpaceOnUse" style="mask-type:luminance">
          <path fill="#fff" d="m220.943 309.003 6.442 20.094-50.776 16.281-6.448-20.088 50.782-16.287Z"/>
        </mask>
        <g mask="url(#O)">
          <mask id="P" width="55" height="27" x="173" y="309" maskUnits="userSpaceOnUse" style="mask-type:luminance">
            <path fill="#fff" d="m173.458 335.31 53.927-6.213-6.442-20.094-47.485 26.307Z"/>
          </mask>
          <g mask="url(#P)">
            <path fill="#1A1A1A" d="m220.943 309.003 6.442 20.094-50.698 16.26-6.447-20.093 50.703-16.261Z"/>
          </g>
        </g>
      </g>
      <mask id="Q" width="17" height="24" x="219" y="307" maskUnits="userSpaceOnUse" style="mask-type:luminance">
        <path fill="#fff" d="M219.333 307.607h16v22.667h-16v-22.667Z"/>
      </mask>
      <g mask="url(#Q)">
        <mask id="R" width="17" height="25" x="220" y="305" maskUnits="userSpaceOnUse" style="mask-type:luminance">
          <path fill="#fff" d="m230.323 305.993 6.37 19.875-10.255 3.286-6.376-19.87 10.261-3.291Z"/>
        </mask>
        <g mask="url(#R)">
          <mask id="S" width="17" height="25" x="220" y="305" maskUnits="userSpaceOnUse" style="mask-type:luminance">
            <path fill="#fff" d="m230.323 305.993 6.37 19.875-10.255 3.286-6.376-19.87 10.261-3.291Z"/>
          </mask>
          <g mask="url(#S)">
            <path fill="#1A1A1A" d="M233.542 316.029c.89 2.771.567 5.63-.667 8.026a10.487 10.487 0 0 1-6.141 5.209c-1.041-3.245-5.38-16.782-6.427-20.042a10.484 10.484 0 0 1 8.026.667 10.503 10.503 0 0 1 5.209 6.14Z"/>
          </g>
        </g>
      </g>
      <mask id="T" width="48" height="47" x="236" y="270" maskUnits="userSpaceOnUse" style="mask-type:luminance">
        <path fill="#fff" d="M236.667 270.274h46.666v46.667h-46.666v-46.667Z"/>
      </mask>
      <g mask="url(#T)">
        <mask id="U" width="57" height="56" x="232" y="266" maskUnits="userSpaceOnUse" style="mask-type:luminance">
          <path fill="#fff" d="m232.51 278.534 43.386-12.312 12.307 43.38-43.38 12.313-12.313-43.381Z"/>
        </mask>
        <g mask="url(#U)">
          <mask id="V" width="46" height="46" x="237" y="271" maskUnits="userSpaceOnUse" style="mask-type:luminance">
            <path fill="#fff" d="M254.203 272.378c-11.979 3.396-18.937 15.865-15.536 27.844 3.401 11.979 15.864 18.937 27.843 15.536 11.98-3.395 18.938-15.864 15.537-27.843-3.396-11.98-15.865-18.938-27.844-15.537Z"/>
          </mask>
          <g mask="url(#V)">
            <path fill="#fff" d="m232.51 278.534 43.386-12.312 12.307 43.38-43.38 12.313-12.313-43.381Z"/>
          </g>
        </g>
      </g>
      <mask id="W" width="22" height="22" x="250" y="283" maskUnits="userSpaceOnUse" style="mask-type:luminance">
        <path fill="#fff" d="M250 283.607h21.333v21.334H250v-21.334Z"/>
      </mask>
      <g mask="url(#W)">
        <mask id="X" width="26" height="26" x="247" y="281" maskUnits="userSpaceOnUse" style="mask-type:luminance">
          <path fill="#fff" d="m247.766 287.045 19.614-5.568 5.568 19.615-19.615 5.567-5.567-19.614Z"/>
        </mask>
        <g mask="url(#X)">
          <mask id="Y" width="21" height="22" x="250" y="283" maskUnits="userSpaceOnUse" style="mask-type:luminance">
            <path fill="#fff" d="M257.573 284.264c-5.417 1.536-8.557 7.171-7.021 12.588 1.537 5.417 7.172 8.557 12.589 7.021 5.416-1.537 8.557-7.172 7.02-12.589-1.536-5.416-7.171-8.557-12.588-7.02Z"/>
          </mask>
          <g mask="url(#Y)">
            <path fill="#1A1A1A" d="m247.766 287.045 19.614-5.568 5.568 19.615-19.615 5.567-5.567-19.614Z"/>
          </g>
        </g>
      </g>
      <mask id="Z" width="12" height="11" x="258" y="282" maskUnits="userSpaceOnUse" style="mask-type:luminance">
        <path fill="#fff" d="M258 282.274h12v10.667h-12v-10.667Z"/>
      </mask>
      <g mask="url(#Z)">
        <mask id="aa" width="14" height="14" x="257" y="281" maskUnits="userSpaceOnUse" style="mask-type:luminance">
          <path fill="#fff" d="m257.573 284.258 9.807-2.781 2.787 9.807-9.808 2.782-2.786-9.808Z"/>
        </mask>
        <g mask="url(#aa)">
          <mask id="ab" width="11" height="11" x="258" y="282" maskUnits="userSpaceOnUse" style="mask-type:luminance">
            <path fill="#fff" d="M262.479 282.868a5.097 5.097 0 0 0-3.51 6.297 5.088 5.088 0 0 0 6.291 3.51 5.09 5.09 0 0 0 3.511-6.292 5.096 5.096 0 0 0-6.292-3.515Z"/>
          </mask>
          <g mask="url(#ab)">
            <path fill="#fff" d="m257.573 284.258 9.807-2.781 2.787 9.807-9.808 2.782-2.786-9.808Z"/>
          </g>
        </g>
      </g>
      <mask id="ac" width="273" height="249" x="300" y="238" maskUnits="userSpaceOnUse" style="mask-type:luminance">
        <path fill="#fff" d="M300.667 238.274h272v248h-272v-248Z"/>
      </mask>
      <g mask="url(#ac)">
        <mask id="ad" width="334" height="308" x="301" y="239" maskUnits="userSpaceOnUse" style="mask-type:luminance">
          <path fill="#fff" d="M634.401 358.18 395.448 546.868l-94.037-119.084 238.954-188.687 94.036 119.083Z"/>
        </mask>
        <g mask="url(#ad)">
          <mask id="ae" width="334" height="308" x="301" y="239" maskUnits="userSpaceOnUse" style="mask-type:luminance">
            <path fill="#fff" d="M634.401 358.18 395.448 546.868l-94.037-119.084 238.954-188.687 94.036 119.083Z"/>
          </mask>
          <g mask="url(#ae)">
            <path fill="#1A1A1A" d="M514.896 452.581c-32.99 26.047-73.276 36.172-111.943 31.625-38.667-4.541-75.599-23.849-101.557-56.718 38.682-30.547 199.797-157.771 238.594-188.412 25.958 32.875 36.177 73.276 31.63 111.943-4.542 38.666-23.849 75.599-56.724 101.562Z"/>
          </g>
        </g>
      </g>
      <mask id="af" width="47" height="47" x="243" y="302" maskUnits="userSpaceOnUse" style="mask-type:luminance">
        <path fill="#fff" d="M243.333 302.274H290v46.667h-46.667v-46.667Z"/>
      </mask>
      <g mask="url(#af)">
        <mask id="ag" width="56" height="56" x="239" y="298" maskUnits="userSpaceOnUse" style="mask-type:luminance">
          <path fill="#fff" d="m239.292 310.373 43.385-12.313 12.307 43.386-43.38 12.307-12.312-43.38Z"/>
        </mask>
        <g mask="url(#ag)">
          <mask id="ah" width="46" height="46" x="244" y="303" maskUnits="userSpaceOnUse" style="mask-type:luminance">
            <path fill="#fff" d="M260.984 304.217c-11.979 3.401-18.937 15.864-15.536 27.843 3.401 11.98 15.864 18.938 27.844 15.537 11.979-3.396 18.937-15.865 15.536-27.844-3.396-11.979-15.864-18.937-27.844-15.536Z"/>
          </mask>
          <g mask="url(#ah)">
            <path fill="#C5283E" d="m239.292 310.373 43.385-12.313 12.307 43.386-43.38 12.307-12.312-43.38Z"/>
          </g>
        </g>
      </g>
      <mask id="ai" width="18" height="18" x="243" y="323" maskUnits="userSpaceOnUse" style="mask-type:luminance">
        <path fill="#fff" d="M243.198 323.56h16.969v16.969h-16.969V323.56Z"/>
      </mask>
      <g mask="url(#ai)">
        <path fill="#070707" d="M255.333 323.56c0 6.698-5.437 12.136-12.135 12.136v5.177c9.562 0 17.312-7.75 17.312-17.313h-5.177Z"/>
      </g>
    </g>
    <mask id="aj" width="298" height="177" x="393" y="0" maskUnits="userSpaceOnUse" style="mask-type:luminance">
      <path fill="#fff" d="M393.401 0h297.325v176.004H393.401V0Z"/>
    </mask>
    <g mask="url(#aj)">
      <path fill="#fff" d="M657.333 74.853a34.953 34.953 0 0 0 2.385-12.68c0-19.698-16.352-35.687-36.547-35.687-4.123 0-8.05.677-11.754 1.9C602.365 11.525 584.238.01 563.367.01c-25.361 0-46.647 16.985-52.582 39.934a34.989 34.989 0 0 0-22.711-8.31c-19.11 0-34.604 15.129-34.604 33.79 0 .283 0 .551.023.837a41.655 41.655 0 0 0-19.133-4.637c-22.623.023-40.959 17.926-40.959 40.016 0 22.094 18.336 40.019 40.982 40.019 3.909 0 7.692-.554 11.269-1.554 4.748 18.58 21.933 32.359 42.445 32.359 13.422 0 25.404-5.896 33.431-15.189 5.604 11.089 17.293 18.703 30.803 18.703 13.506 0 24.505-7.187 30.295-17.743.187-.059.378-.1.564-.164 5.376 5.369 12.881 8.72 21.183 8.72 14.633 0 26.783-10.37 29.187-23.99 5.688 3.391 12.378 5.328 19.552 5.328 20.782 0 37.656-16.453 37.656-36.77 0-18.884-14.596-34.464-33.393-36.523l-.042.018Z"/>
    </g>
    <mask id="ak" width="299" height="177" x="464" y="304" maskUnits="userSpaceOnUse" style="mask-type:luminance">
      <path fill="#fff" d="M464.818 304.065h297.325v176.004H464.818V304.065Z"/>
    </mask>
    <g mask="url(#ak)">
      <path fill="#fff" d="M728.755 378.922a35.092 35.092 0 0 0 2.38-12.679c0-19.703-16.352-35.688-36.547-35.688-4.118 0-8.05.673-11.749 1.896-9.056-16.861-27.183-28.377-48.049-28.377-25.367 0-46.652 16.985-52.587 39.934-6.085-5.165-14.009-8.311-22.707-8.311-19.114 0-34.604 15.13-34.604 33.792 0 .286 0 .55.018.836a41.658 41.658 0 0 0-19.133-4.637c-22.622.023-40.959 17.926-40.959 40.02 0 22.09 18.337 40.015 40.982 40.015 3.909 0 7.697-.55 11.27-1.55 4.747 18.576 21.933 32.36 42.445 32.36 13.426 0 25.404-5.901 33.435-15.194 5.604 11.088 17.288 18.703 30.798 18.703 13.506 0 24.505-7.187 30.296-17.743.191-.06.377-.1.563-.16 5.377 5.369 12.882 8.715 21.183 8.715 14.638 0 26.783-10.369 29.192-23.99 5.683 3.392 12.378 5.328 19.547 5.328 20.783 0 37.656-16.452 37.656-36.769 0-18.885-14.595-34.46-33.388-36.524l-.042.023Z"/>
    </g>
    <mask id="al" width="312" height="184" x="34" y="467" maskUnits="userSpaceOnUse" style="mask-type:luminance">
      <path fill="#fff" d="M34.865 467.054h310.719v183.847H34.865V467.054Z"/>
    </mask>
    <g mask="url(#al)">
      <path fill="#fff" d="M310.691 545.244a36.595 36.595 0 0 0 2.492-13.243c0-20.581-17.088-37.279-38.196-37.279-4.305 0-8.414.705-12.28 1.982-9.462-17.612-28.409-29.641-50.216-29.641-26.503 0-48.748 17.744-54.954 41.711-6.359-5.391-14.637-8.678-23.731-8.678-19.972 0-36.16 15.802-36.16 35.296 0 .296 0 .573.023.873a43.615 43.615 0 0 0-19.995-4.842c-23.643.023-42.809 18.726-42.809 41.802 0 23.072 19.166 41.798 42.832 41.798a43.7 43.7 0 0 0 11.777-1.623c4.957 19.407 22.921 33.8 44.355 33.8 14.027 0 26.55-6.16 34.94-15.866 5.856 11.584 18.071 19.535 32.187 19.535 14.116 0 25.609-7.506 31.66-18.53.196-.064.396-.109.592-.173 5.614 5.61 13.459 9.106 22.133 9.106 15.299 0 27.994-10.833 30.505-25.058 5.945 3.541 12.937 5.569 20.433 5.569 21.719 0 39.352-17.189 39.352-38.411 0-19.726-15.253-35.996-34.898-38.151l-.042.023Z"/>
    </g>
  </g>
  <defs>
    <clipPath id="a">
      <path fill="#fff" d="M0 0h824v774H0z"/>
    </clipPath>
    <clipPath id="c">
      <path fill="#fff" d="M170 158.274h465v575H170z"/>
    </clipPath>
  </defs>
</svg>
