<?xml version="1.0" encoding="UTF-8" standalone="no"?>
<!-- Created with Inkscape (http://www.inkscape.org/) -->

<svg
   width="200mm"
   height="200mm"
   viewBox="0 0 200 200"
   version="1.1"
   id="svg1"
   inkscape:version="1.3.2 (091e20e, 2023-11-25)"
   sodipodi:docname="NepaLingoLogo.svg"
   inkscape:export-filename="NepaLingoLogo.png"
   inkscape:export-xdpi="96"
   inkscape:export-ydpi="96"
   xmlns:inkscape="http://www.inkscape.org/namespaces/inkscape"
   xmlns:sodipodi="http://sodipodi.sourceforge.net/DTD/sodipodi-0.dtd"
   xmlns="http://www.w3.org/2000/svg"
   xmlns:svg="http://www.w3.org/2000/svg">
  <sodipodi:namedview
     id="namedview1"
     pagecolor="#000000"
     bordercolor="#000000"
     borderopacity="0.25"
     inkscape:showpageshadow="2"
     inkscape:pageopacity="0.0"
     inkscape:pagecheckerboard="0"
     inkscape:deskcolor="#d1d1d1"
     inkscape:document-units="mm"
     showguides="false"
     inkscape:zoom="1.2634109"
     inkscape:cx="590.06929"
     inkscape:cy="218.45624"
     inkscape:window-width="3440"
     inkscape:window-height="1357"
     inkscape:window-x="0"
     inkscape:window-y="55"
     inkscape:window-maximized="0"
     inkscape:current-layer="layer1"
     inkscape:export-bgcolor="#ffffff00" />
  <defs
     id="defs1">
    <linearGradient
       id="swatch3"
       inkscape:swatch="solid">
      <stop
         style="stop-color:#000000;stop-opacity:1;"
         offset="0"
         id="stop3" />
    </linearGradient>
    <inkscape:path-effect
       effect="simplify"
       id="path-effect1"
       is_visible="true"
       lpeversion="1.3"
       threshold="5.3"
       steps="1"
       smooth_angles="198.26087"
       helper_size="0"
       simplify_individual_paths="false"
       simplify_just_coalesce="false" />
    <inkscape:path-effect
       effect="simplify"
       id="path-effect364"
       is_visible="true"
       lpeversion="1.3"
       threshold="5"
       steps="22.928177"
       smooth_angles="360"
       helper_size="1"
       simplify_individual_paths="false"
       simplify_just_coalesce="false" />
    <inkscape:path-effect
       effect="simplify"
       id="path-effect364-7"
       is_visible="true"
       lpeversion="1.3"
       threshold="5"
       steps="22.928177"
       smooth_angles="360"
       helper_size="1"
       simplify_individual_paths="false"
       simplify_just_coalesce="false" />
    <inkscape:path-effect
       effect="simplify"
       id="path-effect364-8"
       is_visible="true"
       lpeversion="1.3"
       threshold="5"
       steps="22.928177"
       smooth_angles="360"
       helper_size="1"
       simplify_individual_paths="false"
       simplify_just_coalesce="false" />
    <filter
       style="color-interpolation-filters:sRGB;"
       inkscape:label="Drop Shadow"
       id="filter94"
       x="-0.065716171"
       y="-0.057546348"
       width="1.2190573"
       height="1.1381353">
      <feFlood
         result="flood"
         in="SourceGraphic"
         flood-opacity="1.000000"
         flood-color="rgb(39,98,127)"
         id="feFlood93" />
      <feGaussianBlur
         result="blur"
         in="SourceGraphic"
         stdDeviation="0.000000"
         id="feGaussianBlur93" />
      <feOffset
         result="offset"
         in="blur"
         dx="2.000000"
         dy="0.600000"
         id="feOffset93" />
      <feComposite
         result="comp1"
         operator="in"
         in="flood"
         in2="offset"
         id="feComposite93" />
      <feComposite
         result="comp2"
         operator="over"
         in="SourceGraphic"
         in2="comp1"
         id="feComposite94" />
    </filter>
    <filter
       style="color-interpolation-filters:sRGB;"
       inkscape:label="Drop Shadow"
       id="filter119"
       x="-0.07997026"
       y="-0.099569824"
       width="1.2665633"
       height="1.2372623">
      <feFlood
         result="flood"
         in="SourceGraphic"
         flood-opacity="1.000000"
         flood-color="rgb(39,98,127)"
         id="feFlood118" />
      <feGaussianBlur
         result="blur"
         in="SourceGraphic"
         stdDeviation="0.000000"
         id="feGaussianBlur118" />
      <feOffset
         result="offset"
         in="blur"
         dx="2.000000"
         dy="0.600000"
         id="feOffset118" />
      <feComposite
         result="comp1"
         operator="in"
         in="flood"
         in2="offset"
         id="feComposite118" />
      <feComposite
         result="comp2"
         operator="over"
         in="SourceGraphic"
         in2="comp1"
         id="feComposite119" />
    </filter>
    <filter
       style="color-interpolation-filters:sRGB;"
       inkscape:label="Drop Shadow"
       id="filter121"
       x="-0.091466852"
       y="-0.043577131"
       width="1.3050847"
       height="1.1045998">
      <feFlood
         result="flood"
         in="SourceGraphic"
         flood-opacity="1.000000"
         flood-color="rgb(39,98,127)"
         id="feFlood119" />
      <feGaussianBlur
         result="blur"
         in="SourceGraphic"
         stdDeviation="0.000000"
         id="feGaussianBlur119" />
      <feOffset
         result="offset"
         in="blur"
         dx="2.000000"
         dy="0.600000"
         id="feOffset119" />
      <feComposite
         result="comp1"
         operator="in"
         in="flood"
         in2="offset"
         id="feComposite120" />
      <feComposite
         result="comp2"
         operator="over"
         in="SourceGraphic"
         in2="comp1"
         id="feComposite121" />
    </filter>
    <filter
       style="color-interpolation-filters:sRGB;"
       inkscape:label="Drop Shadow"
       id="filter123"
       x="-0.079183873"
       y="-0.069833749"
       width="1.242165"
       height="1.196581">
      <feFlood
         result="flood"
         in="SourceGraphic"
         flood-opacity="1.000000"
         flood-color="rgb(39,98,127)"
         id="feFlood121" />
      <feGaussianBlur
         result="blur"
         in="SourceGraphic"
         stdDeviation="0.000000"
         id="feGaussianBlur121" />
      <feOffset
         result="offset"
         in="blur"
         dx="2.000000"
         dy="0.600000"
         id="feOffset121" />
      <feComposite
         result="comp1"
         operator="in"
         in="flood"
         in2="offset"
         id="feComposite122" />
      <feComposite
         result="fbSourceGraphic"
         operator="over"
         in="SourceGraphic"
         in2="comp1"
         id="feComposite123" />
      <feColorMatrix
         result="fbSourceGraphicAlpha"
         in="fbSourceGraphic"
         values="0 0 0 -1 0 0 0 0 -1 0 0 0 0 -1 0 0 0 0 1 0"
         id="feColorMatrix303" />
      <feFlood
         id="feFlood303"
         result="flood"
         in="fbSourceGraphic"
         flood-opacity="1.000000"
         flood-color="rgb(39,98,127)" />
      <feGaussianBlur
         id="feGaussianBlur303"
         result="blur"
         in="fbSourceGraphic"
         stdDeviation="0.000000" />
      <feOffset
         id="feOffset303"
         result="offset"
         in="blur"
         dx="2.000000"
         dy="2.000000" />
      <feComposite
         id="feComposite303"
         result="comp1"
         operator="in"
         in="flood"
         in2="offset" />
      <feComposite
         id="feComposite304"
         result="fbSourceGraphic"
         operator="over"
         in="fbSourceGraphic"
         in2="comp1" />
      <feColorMatrix
         result="fbSourceGraphicAlpha"
         in="fbSourceGraphic"
         values="0 0 0 -1 0 0 0 0 -1 0 0 0 0 -1 0 0 0 0 1 0"
         id="feColorMatrix304" />
      <feFlood
         id="feFlood304"
         result="flood"
         in="fbSourceGraphic"
         flood-opacity="1.000000"
         flood-color="rgb(39,98,127)" />
      <feGaussianBlur
         id="feGaussianBlur304"
         result="blur"
         in="fbSourceGraphic"
         stdDeviation="0.000000" />
      <feOffset
         id="feOffset304"
         result="offset"
         in="blur"
         dx="2.000000"
         dy="2.000000" />
      <feComposite
         id="feComposite305"
         result="comp1"
         operator="in"
         in="flood"
         in2="offset" />
      <feComposite
         id="feComposite306"
         result="comp2"
         operator="over"
         in="fbSourceGraphic"
         in2="comp1" />
    </filter>
    <filter
       style="color-interpolation-filters:sRGB;"
       inkscape:label="Drop Shadow"
       id="filter125"
       x="-0.020871827"
       y="-0.034466019"
       width="1.0695122"
       height="1.0826858">
      <feFlood
         result="flood"
         in="SourceGraphic"
         flood-opacity="1.000000"
         flood-color="rgb(39,98,127)"
         id="feFlood123" />
      <feGaussianBlur
         result="blur"
         in="SourceGraphic"
         stdDeviation="0.000000"
         id="feGaussianBlur123" />
      <feOffset
         result="offset"
         in="blur"
         dx="2.000000"
         dy="0.600000"
         id="feOffset123" />
      <feComposite
         result="comp1"
         operator="in"
         in="flood"
         in2="offset"
         id="feComposite124" />
      <feComposite
         result="comp2"
         operator="over"
         in="SourceGraphic"
         in2="comp1"
         id="feComposite125" />
    </filter>
    <filter
       style="color-interpolation-filters:sRGB;"
       inkscape:label="Drop Shadow"
       id="filter127"
       x="-0.32126585"
       y="-0.057566787"
       width="2.0708865"
       height="1.1380976">
      <feFlood
         result="flood"
         in="SourceGraphic"
         flood-opacity="1.000000"
         flood-color="rgb(39,98,127)"
         id="feFlood125" />
      <feGaussianBlur
         result="blur"
         in="SourceGraphic"
         stdDeviation="0.000000"
         id="feGaussianBlur125" />
      <feOffset
         result="offset"
         in="blur"
         dx="2.000000"
         dy="0.600000"
         id="feOffset125" />
      <feComposite
         result="comp1"
         operator="in"
         in="flood"
         in2="offset"
         id="feComposite126" />
      <feComposite
         result="comp2"
         operator="over"
         in="SourceGraphic"
         in2="comp1"
         id="feComposite127" />
    </filter>
    <filter
       style="color-interpolation-filters:sRGB;"
       inkscape:label="Drop Shadow"
       id="filter129"
       x="-0.19870895"
       y="-0.20192592"
       width="1.6673451"
       height="1.494069">
      <feFlood
         result="flood"
         in="SourceGraphic"
         flood-opacity="1.000000"
         flood-color="rgb(39,98,127)"
         id="feFlood127" />
      <feGaussianBlur
         result="blur"
         in="SourceGraphic"
         stdDeviation="0.000000"
         id="feGaussianBlur127" />
      <feOffset
         result="offset"
         in="blur"
         dx="2.000000"
         dy="0.600000"
         id="feOffset127" />
      <feComposite
         result="comp1"
         operator="in"
         in="flood"
         in2="offset"
         id="feComposite128" />
      <feComposite
         result="comp2"
         operator="over"
         in="SourceGraphic"
         in2="comp1"
         id="feComposite129" />
    </filter>
    <filter
       style="color-interpolation-filters:sRGB;"
       inkscape:label="Drop Shadow"
       id="filter131"
       x="-0.077360779"
       y="-0.056790469"
       width="1.257871"
       height="1.1366793">
      <feFlood
         result="flood"
         in="SourceGraphic"
         flood-opacity="1.000000"
         flood-color="rgb(39,98,127)"
         id="feFlood129" />
      <feGaussianBlur
         result="blur"
         in="SourceGraphic"
         stdDeviation="0.000000"
         id="feGaussianBlur129" />
      <feOffset
         result="offset"
         in="blur"
         dx="2.000000"
         dy="0.600000"
         id="feOffset129" />
      <feComposite
         result="comp1"
         operator="in"
         in="flood"
         in2="offset"
         id="feComposite130" />
      <feComposite
         result="comp2"
         operator="over"
         in="SourceGraphic"
         in2="comp1"
         id="feComposite131" />
    </filter>
    <filter
       style="color-interpolation-filters:sRGB;"
       inkscape:label="Drop Shadow"
       id="filter133"
       x="-0.079773029"
       y="-0.062015132"
       width="1.2668065"
       height="1.1487591">
      <feFlood
         result="flood"
         in="SourceGraphic"
         flood-opacity="1.000000"
         flood-color="rgb(39,98,127)"
         id="feFlood131" />
      <feGaussianBlur
         result="blur"
         in="SourceGraphic"
         stdDeviation="0.000000"
         id="feGaussianBlur131" />
      <feOffset
         result="offset"
         in="blur"
         dx="2.000000"
         dy="0.600000"
         id="feOffset131" />
      <feComposite
         result="comp1"
         operator="in"
         in="flood"
         in2="offset"
         id="feComposite132" />
      <feComposite
         result="comp2"
         operator="over"
         in="SourceGraphic"
         in2="comp1"
         id="feComposite133" />
    </filter>
    <filter
       style="color-interpolation-filters:sRGB;"
       inkscape:label="Drop Shadow"
       id="filter135"
       x="-0.069139545"
       y="-0.055221846"
       width="1.2304632"
       height="1.1324664">
      <feFlood
         result="flood"
         in="SourceGraphic"
         flood-opacity="1.000000"
         flood-color="rgb(39,98,127)"
         id="feFlood133" />
      <feGaussianBlur
         result="blur"
         in="SourceGraphic"
         stdDeviation="0.000000"
         id="feGaussianBlur133" />
      <feOffset
         result="offset"
         in="blur"
         dx="2.000000"
         dy="0.600000"
         id="feOffset133" />
      <feComposite
         result="comp1"
         operator="in"
         in="flood"
         in2="offset"
         id="feComposite134" />
      <feComposite
         result="comp2"
         operator="over"
         in="SourceGraphic"
         in2="comp1"
         id="feComposite135" />
    </filter>
    <filter
       style="color-interpolation-filters:sRGB;"
       inkscape:label="Drop Shadow"
       id="filter137"
       x="-0.083637874"
       y="-0.10548343"
       width="1.2781598"
       height="1.2526362">
      <feFlood
         result="flood"
         in="SourceGraphic"
         flood-opacity="1.000000"
         flood-color="rgb(39,98,127)"
         id="feFlood135" />
      <feGaussianBlur
         result="blur"
         in="SourceGraphic"
         stdDeviation="0.000000"
         id="feGaussianBlur135" />
      <feOffset
         result="offset"
         in="blur"
         dx="2.000000"
         dy="0.600000"
         id="feOffset135" />
      <feComposite
         result="comp1"
         operator="in"
         in="flood"
         in2="offset"
         id="feComposite136" />
      <feComposite
         result="comp2"
         operator="over"
         in="SourceGraphic"
         in2="comp1"
         id="feComposite137" />
    </filter>
  </defs>
  <g
     inkscape:label="Layer 1"
     inkscape:groupmode="layer"
     id="layer1">
    <path
       fill="#d03641"
       opacity="1"
       stroke="none"
       d="m 38.171687,100.0046 c -0.0087,-0.567904 0.253394,-0.590882 2.33189,-0.57312 2.203677,0.01883 2.340244,0.04465 2.347787,0.62653 0.01648,1.27142 0.08752,11.41797 0.299699,16.98724 0.02933,0.85996 -0.139075,1.76642 -1.134046,1.90894 -1.157361,0.16578 -3.641076,0.11063 -3.854892,-0.20346 -2.916745,-4.28462 -9.308966,-13.85168 -12.710524,-18.33759 -0.09592,5.91576 -0.0511,15.09008 -0.05939,17.04601 -0.007,1.66161 -0.0022,1.66066 -2.509191,1.58538 -2.479397,-0.0744 -2.580758,0.0336 -2.54343,-1.70278 0.04112,-1.91274 -0.06762,-15.77784 0.0033,-24.338948 1.885115,0.02628 6.546535,0.03166 6.823337,0.457668 5.779268,8.89449 11.15858,16.53298 11.154,16.23437 z"
       id="path68"
       sodipodi:nodetypes="sssssscssscscs"
       style="stroke:#ffffff;stroke-width:3;stroke-linecap:butt;stroke-linejoin:round;stroke-dasharray:none;stroke-opacity:1;paint-order:stroke markers fill;filter:url(#filter94)" />
    <path
       fill="#d03641"
       opacity="1"
       stroke="none"
       d="m 226.60733,251.16924 c -0.68418,3.37734 0.34814,6.04579 -7.4536,6.04786 -13.16249,0.004 -26.32499,9.8e-4 -39.48748,9.8e-4 h -6.3739 c -0.0829,3.7129 0.0127,6.18164 1.40358,8.81004 1.56353,2.9547 4.3575,5.29078 7.30104,6.87523 3.5967,1.93604 7.84226,2.69623 11.92505,2.82028 5.74245,0.17447 11.33065,-1.91025 16.9825,-2.94116 2.80162,-0.51102 5.66945,-2.44729 8.39084,-1.60809 2.31771,0.71471 4.25138,2.89712 5.13378,5.15631 1.05201,2.69344 1.05475,6.13197 -0.33376,8.66839 -0.83388,1.52327 -2.71819,2.20958 -4.27747,2.97402 -4.99048,2.44658 -10.48623,3.77348 -15.90884,4.99248 -0.39865,0.0896 -0.80663,0.13864 -1.21411,0.16882 -4.85901,0.35993 -9.82273,1.01462 -14.61628,0.14203 -7.06201,-1.28552 -14.27142,-3.5641 -20.07814,-7.78388 -3.36722,-2.44698 -5.67936,-6.15224 -7.88862,-9.67999 -1.31321,-2.09693 -2.44218,-4.35381 -3.12941,-6.73065 -1.41633,-4.89851 -2.12247,-10.07673 -1.94824,-15.17291 0.25929,-7.58432 0.95565,-13.97177 4.11894,-19.87752 5.36599,-11.3755 13.37124,-19.18197 25.7649,-21.04924 3.29793,-0.49948 6.6863,-0.61015 10.00328,-0.25874 11.81853,0.29919 20.21011,5.9958 26.93936,15.477 4.33968,6.99473 4.50044,15.05225 4.74658,22.96874 z m -36.54441,-22.96321 c -7.0556,0.41364 -12.19998,6.96613 -15.44029,15.56476 9.42363,0 17.98048,0.11195 26.53242,-0.0442 4.7321,-0.0864 5.64491,-4.84402 3.20309,-8.75082 -1.33478,-2.13559 -3.20479,-4.35786 -6.38774,-5.63772 -2.2047,-0.8865 -5.44213,-1.24029 -7.90748,-1.13202 z"
       id="path70"
       transform="matrix(0.26458333,0,0,0.26458333,3.5973213,41.50467)"
       sodipodi:nodetypes="cccccccccccccccccccsccscccccsc"
       style="stroke:#ffffff;stroke-width:11.3386;stroke-linecap:butt;stroke-linejoin:round;stroke-dasharray:none;stroke-opacity:1;paint-order:stroke markers fill;filter:url(#filter123)" />
    <path
       fill="#315b73"
       opacity="1"
       stroke="none"
       d="m 117.94803,89.097672 c -0.54802,0.0424 -0.98489,0.0788 -1.42252,0.0954 -2.10391,0.0799 -3.16651,-0.78732 -3.61515,-2.80006 -0.41606,-1.86657 0.52776,-3.39944 2.33828,-4.07702 1.72296,-0.64482 3.18078,-0.26526 4.30073,1.11973 0.87668,1.08415 1.0191,3.20347 0.14484,4.39776 -0.38865,0.53091 -1.08094,0.83955 -1.74618,1.26416 z"
       id="path345"
       style="fill:#427a9a;fill-opacity:1;stroke:#ffffff;stroke-width:3;stroke-linecap:butt;stroke-linejoin:round;stroke-dasharray:none;stroke-opacity:1;paint-order:stroke markers fill;filter:url(#filter129)"
       sodipodi:nodetypes="ccsssssc"
       transform="matrix(0.81594421,0,0,0.80385538,21.228132,17.104388)" />
    <path
       fill="#d03641"
       opacity="1"
       stroke="none"
       d="m 65.798164,97.870156 c 3.165626,0.001 5.505455,-0.13111 8.887616,-0.0011 1.999897,0.07685 3.490784,0.900124 4.269029,1.743834 0.96129,1.04216 1.545941,2.33004 1.974929,3.82228 0.485478,1.68873 0.709995,7.27745 -0.744962,9.73325 -0.618664,0.91682 -2.118747,3.28236 -3.934873,4.27036 -1.735211,0.71066 -4.274284,1.35642 -6.111912,1.34532 0,0 -0.0834,0.0282 -0.184919,0.12065 -0.11842,0.61602 -0.146326,1.13953 -0.150456,1.66322 -0.03001,3.8053 -0.111704,9.65186 -0.108402,11.01932 0.0015,0.62637 -1.420269,0.64633 -2.17813,0.65209 -0.894991,0.007 -2.550557,-0.004 -2.583657,-0.73089 -0.05709,-1.25338 0.0026,-21.70025 -0.03327,-32.455027 -0.0024,-0.74952 0.366014,-0.96733 0.899025,-1.18322 m 11.292451,9.624007 c 7e-6,-0.30932 -0.382841,-2.9245 -1.158506,-4.12459 -0.817213,-1.26438 -4.417692,-1.76298 -5.710309,-0.94232 -0.262564,0.1667 -0.396464,0.71094 -0.40015,1.083 -0.0309,3.12108 0.03863,6.24416 -0.04802,9.36315 -0.0304,1.09443 0.621741,1.44659 1.369091,1.54252 1.603071,0.20577 2.739295,-0.35688 3.820721,-1.78966 1.165432,-1.54414 2.161929,-2.94096 2.127168,-5.1321 z"
       id="path69"
       style="stroke:#ffffff;stroke-width:3;stroke-linecap:butt;stroke-linejoin:round;stroke-dasharray:none;stroke-opacity:1;paint-order:stroke markers fill;filter:url(#filter121)"
       sodipodi:nodetypes="csssccccssasccsssssscss" />
    <path
       fill="#d03641"
       opacity="1"
       stroke="none"
       d="m 101.52027,118.49466 c 0,0 -0.0282,0.001 -0.1371,0.0362 -0.65408,0.12012 -1.19661,0.23378 -1.744946,0.28352 -7.137133,0.44787 -16.711081,1.24267 -16.875028,-6.81543 -0.0072,-1.31134 0.414624,-3.97651 0.930287,-4.8186 0.51904,-0.84761 1.473148,-2.33777 4.323828,-3.25628 2.693137,-0.63328 10.610482,0.57276 13.415619,1.74847 0.0694,4.09237 0.0788,8.69336 0.0873,12.82212 z m -9.366132,-3.79757 c 1.132474,0.0772 2.264388,-0.16427 3.397578,-0.22883 0.834188,-0.0475 1.131658,-0.5111 1.121398,-1.29637 -0.0178,-1.3627 -0.0199,-2.72603 0.002,-4.08862 0.0103,-0.64865 -0.0865,-1.10595 -0.89777,-1.12712 -1.523378,-0.0398 -3.069979,-0.3524 -4.561887,-0.17427 -2.500607,0.29856 -3.779354,1.77754 -3.67819,3.79868 0.165828,3.31298 3.453929,3.03729 4.616871,3.11653 z"
       id="path71"
       style="stroke:#ffffff;stroke-width:3;stroke-linecap:butt;stroke-linejoin:round;stroke-dasharray:none;stroke-opacity:1;paint-order:stroke markers fill;filter:url(#filter119)"
       sodipodi:nodetypes="ccscsccccssccssss" />
    <path
       fill="#d03641"
       opacity="1"
       stroke="none"
       d="m 109.32482,113.97607 c 0.69287,0.20561 1.30438,0.53868 1.90227,0.51581 0.85761,-0.0328 1.27936,0.36171 1.31196,1.07205 0.0496,1.08133 -0.0694,2.17042 -0.16542,3.35598 -0.0486,0.0998 -0.0558,0.12216 -0.15694,0.14026 -0.54839,0.0256 -0.99568,0.033 -1.44297,0.0404 -0.041,-0.0215 -0.082,-0.0431 -0.27041,-0.14323 0,0 -4.55053,-0.79906 -6.26386,-2.47346 -1.52676,-1.75294 -1.42799,-4.69301 -1.46873,-6.74222 -0.036,-3.68604 -0.006,-7.37269 -0.022,-11.059014 -0.002,-0.40663 -0.13602,-0.81267 -0.20884,-1.21899 -0.0694,-0.10454 -0.13869,-0.20909 -0.29626,-0.42034 -0.22054,-0.14287 -0.35284,-0.17904 -0.48516,-0.2152 0,0 -5.3e-4,-0.0218 -0.0871,-0.0991 -6.371974,-0.003 -12.657427,0.072 -18.94289,0.14668 -1.931496,-0.416361 -9.034734,-4.483885 -13.248978,-6.661784 -4.135129,-1.881252 -9.31711,-3.8754 -12.122003,-3.937368 -2.582216,-0.05705 -7.58125,0.52736 -11.14026,4.709178 0,0 -0.0245,-10e-4 -0.147923,0.0228 -1.601639,0.0261 -3.080086,0.0134 -4.557948,0.0371 -0.61608,0.01 -1.044795,-0.10034 -0.899229,-0.8551 1.976143,-3.269662 5.23,-6.580315 8.35477,-7.617222 2.456502,-0.709566 8.969443,-0.921169 11.70637,-0.386902 4.094215,0.880555 7.47296,2.104696 18.329274,7.711034 2.213276,1.62874 4.638338,2.43602 7.441355,2.37453 4.97767,-0.10918 9.959496,-0.0215 14.939412,-0.0465 0.43852,-0.002 0.87592,-0.22764 1.31383,-0.34939 0.37749,-2.251376 0.28453,-4.981259 0.31232,-7.38741 0.0163,-2.51195 0.0418,-5.02475 -0.008,-7.53581 -0.0204,-1.01679 0.30742,-1.39769 1.36183,-1.40131 3.17874,-0.0109 3.19144,-0.0487 3.20079,3.13238 0.0315,10.70543 0.0542,21.410908 0.0767,32.116368 0.003,1.32244 0.22344,2.52334 1.6845,3.17581 z"
       id="path67"
       style="stroke:#ffffff;stroke-width:3;stroke-linecap:butt;stroke-linejoin:round;stroke-dasharray:none;stroke-opacity:1;paint-order:stroke markers fill;filter:url(#filter125)"
       sodipodi:nodetypes="csscccccccccccccscccccccsccccscccc" />
    <path
       fill="#d03641"
       opacity="1"
       stroke="none"
       d="m 86.952217,98.306857 c -4.748147,0 9.327004,0.0558 14.000463,0.121891 0,0 0.1473,0.08483 0.16775,0.260529 0.0676,2.080623 0.0986,3.556733 0.0986,5.582693 -0.73381,-0.11388 -1.248036,-0.26774 -1.933097,-0.56168 -4.709825,-2.15915 -14.261581,-0.81059 -14.487674,-1.94952 -0.218517,-1.10076 -0.63263,-1.939377 -0.03205,-2.887393 0.545253,-0.537622 2.928215,-0.56652 2.186062,-0.56652 z"
       id="path73"
       style="stroke:#ffffff;stroke-width:3;stroke-linecap:butt;stroke-linejoin:round;stroke-dasharray:none;stroke-opacity:1;paint-order:stroke markers fill"
       sodipodi:nodetypes="sccccssss" />
    <path
       fill="#315b73"
       opacity="1"
       stroke="none"
       d="m 114.44309,99.132316 c -3e-5,-2.24106 -3e-5,-4.349824 -3e-5,-6.665234 1.35634,0 2.60195,-0.0527 3.82845,0.0356 0.32286,0.0232 0.8411,0.483 0.84058,0.74185 -0.0158,7.832538 -0.0856,15.665028 -0.14597,23.497518 -0.004,0.52181 -3.5e-4,1.04367 -3.5e-4,1.78639 h -4.5225 c 0,-6.54693 0,-12.90537 -3e-5,-19.396114 z"
       id="path344"
       style="stroke:#ffffff;stroke-width:3;stroke-linecap:butt;stroke-linejoin:round;stroke-dasharray:none;stroke-opacity:1;paint-order:stroke markers fill;filter:url(#filter127);fill:#437b9b;fill-opacity:1"
       sodipodi:nodetypes="ccccscccc" />
    <path
       fill="#315b73"
       opacity="1"
       stroke="none"
       d="m 122.33021,111.3502 c -4e-5,-6.29761 -4e-5,-12.463774 -4e-5,-18.694338 1.49394,-0.26364 3.76681,-0.27735 4.92099,0.93212 2.61914,2.744624 5.41263,5.332244 8.14757,7.971598 0.32149,0.31026 0.7202,0.54485 1.15429,0.86741 0.70812,-3.004364 -0.48176,-5.265584 -3.71905,-5.607224 -0.43492,-0.0459 -0.81638,-0.65043 -1.19867,-1.01969 -0.0749,-0.0723 -0.057,-0.25353 -0.0518,-0.38338 0.0937,-2.359314 -0.6793,-3.280384 2.89481,-2.936034 3.82873,0.36888 5.96894,1.65484 6.81514,4.505884 0.25757,0.86782 0.38087,1.80235 0.38597,2.70728 0.0332,5.907374 -0.009,11.815224 0.0402,17.722394 0.009,1.10329 -0.33696,1.442 -1.46732,1.4331 -0.93268,-0.007 -2.09317,0.16552 -2.57405,-0.0932 -0.9928,-0.5341 -0.90306,-2.16365 -0.93122,-3.34336 -0.0231,-0.96962 0.16337,-1.75003 0.0296,-2.904 0.12942,-3.13904 -1.24238,-4.47711 -3.20147,-6.13466 -2.25878,-1.91109 -4.35202,-4.00719 -6.70914,-6.20167 v 18.42019 h -4.53587 c 0,-2.50726 0,-4.80912 -3e-5,-7.24245 z"
       id="path327"
       style="stroke:#ffffff;stroke-width:3;stroke-linecap:butt;stroke-linejoin:round;stroke-dasharray:none;stroke-opacity:1;paint-order:stroke markers fill;filter:url(#filter131);fill:#427a9a;fill-opacity:1"
       sodipodi:nodetypes="ccsscsccssccssscsccccc" />
    <path
       fill="#315b73"
       opacity="1"
       stroke="none"
       d="m 146.29284,98.476866 c 3.45406,-4.539584 10.71228,-3.905814 14.5042,-2.195324 1.54611,0.69744 0.84543,2.047914 0.90961,3.112504 0.0142,0.23533 -1.13614,0.783804 -1.73832,0.766734 -1.65098,-0.0468 -3.29439,-0.329684 -4.94298,-0.497644 -3.57567,-0.36429 -5.37031,1.864454 -6.11132,4.562554 -0.73227,2.66622 -0.78241,5.41893 0.18273,8.11112 0.68725,1.91706 2.17832,3.06097 4.1948,3.08867 0.70527,0.01 1.41181,0.0256 2.11597,-0.004 1.39741,-0.0589 1.86035,-0.53897 1.86234,-1.91281 0.005,-3.57107 0.0308,-7.14252 -0.0154,-10.713 -0.0143,-1.10762 0.23264,-1.6089 1.48268,-1.42369 1.02867,0.15241 2.09789,0.0311 3.26878,0.0311 0.03,0.52298 0.075,0.94632 0.0754,1.36971 0.005,4.62917 -0.0283,9.25871 0.0259,13.88724 0.0131,1.12285 -0.38164,1.74443 -1.45064,1.96336 -2.33634,0.47847 -4.88657,0.50082 -7.23636,0.57634 -4.91836,0.15809 -8.76714,-1.40555 -9.70353,-7.3483 -0.74307,-4.71596 -0.327,-9.24752 2.57615,-13.374484 z"
       id="path328"
       style="stroke:#ffffff;stroke-width:3;stroke-linecap:butt;stroke-linejoin:round;stroke-dasharray:none;stroke-opacity:1;paint-order:stroke markers fill;filter:url(#filter133);fill:#427a9a;fill-opacity:1"
       sodipodi:nodetypes="csssssscccsscccssscc" />
    <path
       fill="#315b73"
       opacity="1"
       stroke="none"
       d="m 184.83923,109.75504 c 0.1472,4.03957 -1.28392,7.41524 -4.17684,9.90555 -2.87107,2.47149 -6.39816,2.83479 -10.03116,1.75295 -0.57805,-0.17214 -1.14412,-0.40106 -1.69231,-0.6544 -3.91281,-1.80829 -5.20094,-5.29448 -5.60997,-9.18696 -0.29593,-2.81621 -0.24723,-5.63926 0.44227,-8.46189 1.41543,-5.794738 6.50754,-9.016148 12.42902,-7.827038 4.83124,0.97019 7.38898,4.179214 8.31632,8.773998 0.36477,1.80739 0.23017,3.71555 0.32267,5.69779 m -6.18202,-7.30865 c -0.62356,-0.66047 -1.13575,-1.51497 -1.88994,-1.94787 -3.29432,-1.890984 -7.11836,-0.47264 -8.23598,3.83401 -0.69111,2.66315 -0.64907,5.43206 -0.0638,8.13781 0.61568,2.84637 2.54352,4.67259 4.97391,4.80808 2.95231,0.16459 4.52816,-0.89186 5.59822,-3.6082 1.43273,-3.63699 1.26689,-7.41583 -0.38239,-11.22383 z"
       id="path326"
       style="stroke:#ffffff;stroke-width:3;stroke-linecap:butt;stroke-linejoin:round;stroke-dasharray:none;stroke-opacity:1;paint-order:stroke markers fill;filter:url(#filter135);fill:#427a9a;fill-opacity:1"
       sodipodi:nodetypes="csssscsscscssssss" />
    <path
       fill="#315b73"
       opacity="1"
       stroke="none"
       d="m 158.1644,134.2482 c -3.72524,1.40478 -7.23174,1.23123 -10.76447,-0.22831 -2.28663,-0.94473 -3.56549,-4.13989 -3.06611,-7.22185 0.42926,-2.64909 2.06748,-4.2028 4.53908,-5.01744 3.22803,-1.06397 6.4565,-0.93726 9.65377,0.0614 0.76539,0.23907 1.54463,0.70505 2.22689,1.27098 2.99317,2.93739 1.18729,9.71112 -2.58916,11.13522 z m -1.86019,-8.16232 c -1.65786,-0.81319 -3.39293,-0.68137 -5.11218,-0.33033 -1.10183,0.22497 -1.70831,1.00373 -1.80443,2.14131 -0.0978,1.15744 0.2755,2.20378 1.40958,2.50782 1.1906,0.3192 2.516,0.50471 3.71149,0.31078 0.84016,-0.13628 1.76913,-0.8584 2.2834,-1.58454 0.64626,-0.91253 0.66474,-2.06838 -0.48786,-3.04504 z"
       id="path329"
       style="fill:#427a9a;fill-opacity:1;stroke:#ffffff;stroke-width:3;stroke-linecap:butt;stroke-linejoin:round;stroke-dasharray:none;stroke-opacity:1;paint-order:stroke markers fill;filter:url(#filter137)"
       sodipodi:nodetypes="ssssscscsssssc"
       transform="matrix(0.72861454,0,0,0.68932903,41.861259,39.895413)" />
    <path
       fill="#d03641"
       opacity="1"
       stroke="none"
       d="m 77.971266,96.552123 c -0.540532,0.03217 -0.800753,0.03776 -1.279519,0.03859 -2.64079,-0.133155 -22.742082,0.173775 -24.124832,0.21658 0,0 -0.024,-0.002 -0.147516,0.0223 -6.804937,0.0261 -11.936367,-0.03721 -18.617715,-0.05851 0,0 -1.44544,0.128983 -1.472918,-0.356463 l 0.0097,-3.971983 c -0.0067,-0.278415 1.366282,-0.258027 1.94166,-0.258692 11.504368,-0.01327 23.700619,-0.20188 35.343101,-0.196847 0.730499,3.16e-4 3.643178,1.755658 4.267757,2.052623 0.797593,0.458191 3.590752,1.937084 4.080282,2.512402 z"
       id="path72"
       style="stroke:#ffffff;stroke-width:3;stroke-linecap:butt;stroke-linejoin:round;stroke-dasharray:none;stroke-opacity:1;paint-order:stroke markers fill"
       sodipodi:nodetypes="ccccccccscc" />
  </g>
</svg>
